<svg viewBox="0 0 100 100" xmlns="http://www.w3.org/2000/svg" class="hide"><symbol viewBox="0 0 100 100" id="icon__facebook"><title>facebook</title> <path d="M90.1 5.1H10c-2.7 0-5 2.2-5 5v80.1c0 2.7 2.2 5 5 5h43.1V60.3H41.4V46.7h11.7V36.7c0-11.6 7.1-18 17.5-18 5 0 9.2 0.4 10.5 0.5v12.2l-7.2 0c-5.6 0-6.7 2.7-6.7 6.6v8.7h13.5l-1.8 13.6H67.2v34.9h22.9c2.7 0 5-2.2 5-5V10.1C95.1 7.4 92.8 5.1 90.1 5.1z"/> </symbol><symbol viewBox="0 0 300 150" id="icon__logo"><title>logo</title><path fill="#464545" d="M7.1 99.7v-5.6l6.2-0.5c1.4-0.1 1.6-0.5 1.6-2V32.6c0-1.1-0.3-1.8-1.4-2.2l-6.1-1.9 0.9-5.4H24.2v68.3c0 1.6 0.1 1.8 1.6 2l6.1 0.7v5.4H7.1V99.7zM76.7 99.7l-0.8-6.6h-0.4c-4.9 4.6-10.6 7.9-18.3 7.9 -12.6 0-14.2-8.7-14.2-13.8 0-10.2 6.2-14.9 18.4-15.9l13.7-1.2v-5.4c0-7.5-1.4-11.1-10.3-11.1 -6.2 0-10.7 0.1-10.7 7.9l-8.8-0.8c0-12.5 11.5-13.8 19.5-13.8 14.4 0 19.2 4.1 19.2 18V91.6c0 1.6 0.1 1.8 1.6 2l5.2 0.7v5.4H76.7L76.7 99.7zM75.1 76.4l-11.4 0.9c-8.7 0.8-11.1 3.4-11.1 8.7 0 5.4 2.3 7.7 7 7.7 6 0 12.3-4.9 15.5-7.9V76.4z"/><path fill="#464545" d="M107 54.1l6.6-0.8v-5.6H92.8l-1.2 5.6 4.2 0.9c1.2 0.3 1.6 0.5 2.2 1.8l14.5 34.4c1.4 3.3 6.1 3.1 7.2-0.3l0.8-2.6L107 54.1z"/><path fill="#464545" d="M197.7 96.4c-5 2.8-11.1 4.6-18.4 4.6 -18.3 0-24.3-12.1-24.3-27.1 0-18.6 10.3-27.1 23.2-27.1 12.3 0 20.9 6.6 20.9 24.3 0 1.4-0.1 3.4-0.1 5H164.9c0.3 10.3 4.5 17.2 15.5 17.2 5.7 0 9.2-0.9 14.6-3.7L197.7 96.4zM189.7 69c-0.1-11.5-5.4-14.9-11.7-14.9 -6.8 0-12.5 3.7-13.3 14.9H189.7zM208.2 99.7v-5.6l5-0.5c1.4-0.1 1.6-0.5 1.6-2V57c0-1.1-0.3-1.8-1.4-2.2l-5.8-1.9 0.9-5.4h13.3l0.9 7 0.3 0.1c3.4-3.8 8.3-8.1 15.2-8.1 2.3 0 5.4 0.4 7.3 0.9v15.3l-7.2-0.3 -1.2-7c-0.1-0.8-0.3-0.9-1.2-0.9 -4.6 0-9.8 4.2-12.1 6.4v30.5c0 1.6 0.1 1.9 1.6 2l9.4 0.8v5.4H208.2zM285.8 62.2l-1.2-6.2c-0.1-0.7-0.1-1.1-0.9-1.4 -1.4-0.5-4.5-1.1-7.9-1.1 -7.5 0-10.7 3.3-10.7 7.6 0 5.8 6.1 7 12.6 8.7 7.9 2 16.5 4.5 16.5 15.5 0 11.8-9.9 15.9-20.6 15.9 -8.3 0-16.5-2.3-18.3-3.4v-13.4l6.8 0.4 1.2 7c0.1 0.7 0.3 1.1 1.2 1.4 1.4 0.5 4.9 1.6 9.9 1.6 6.8 0 11.1-2.6 11.1-8 0-6.1-5.8-7.5-12.2-9.1 -7.9-1.8-16.8-3.8-16.8-15 0-11.5 9.8-15.9 20.2-15.9 7.3 0 13.8 1.9 16 2.8v13L285.8 62.2z"/><polygon fill="#464545" points="112.9 132.8 121.4 132.8 156.8 23.2 148.4 23.2 "/><animate fill="remove" repeatCount="indefinite" attributeType="XML" restart="always" additive="replace" values="#800;#f00;#800;#800" calcMode="linear" dur="0.8" attributeName="fill" accumulate="none"/></symbol><symbol viewBox="0 0 100 100" id="icon__menu"><title>menu</title><rect x="13.7" y="64.1" width="71.6" height="4.8"/><rect x="13.7" y="47.7" width="71.6" height="4.8"/><rect x="13.7" y="31.3" width="71.6" height="4.8"/></symbol><symbol viewBox="0 0 100 100" id="icon__pointer"><title>pointer</title> <g> <path fill="#1beab8" d="M15.4,38.8C15.4,19.2,31.3,3.3,51,3.3s35.5,15.9,35.5,35.5S51,96.6,51,96.6S15.4,58.5,15.4,38.8z"/> <circle fill="#464544" cx="51" cy="37.4" r="10.4"/> </g> </symbol><symbol viewBox="0 0 100 100" id="icon__roundel"><title>roundel</title> <path class="icon__roundel__outer" d="M49.9 5.4c-24.6 0-44.6 19.9-44.6 44.4 0 24.5 19.9 44.4 44.6 44.4 24.6 0 44.6-19.9 44.6-44.4C94.4 25.3 74.5 5.4 49.9 5.4zM49.9 77c-15 0-27.1-12.1-27.1-27.1 0-15 12.1-27.1 27.1-27.1s27.1 12.1 27.1 27.1C77 64.8 64.8 77 49.9 77z"/> <path class="icon__roundel__inner" d="M62.7 49.9c0 7.1-5.8 12.8-12.8 12.8 -7.1 0-12.8-5.7-12.8-12.8 0-7.1 5.8-12.8 12.8-12.8C57 37 62.7 42.8 62.7 49.9z"/> </symbol><symbol viewBox="0 0 100 100" id="icon__twitter"><title>twitter</title> <path d="M95.297 21.646c-3.317 1.471-6.883 2.465-10.626 2.913 3.821-2.289 6.753-5.917 8.134-10.236 -3.574 2.119-7.533 3.66-11.748 4.489 -3.375-3.595-8.184-5.842-13.504-5.842 -10.218 0-18.502 8.283-18.502 18.501 0 1.45 0.164 2.86 0.479 4.216 -15.376-0.771-29.009-8.138-38.135-19.331 -1.592 2.732-2.504 5.91-2.504 9.302 0 6.419 3.266 12.081 8.23 15.399 -3.033-0.097-5.886-0.929-8.38-2.313 -0.001 0.077-0.001 0.153-0.001 0.232 0 8.965 6.377 16.442 14.841 18.141 -1.553 0.425-3.187 0.649-4.875 0.649 -1.192 0-2.351-0.115-3.48-0.332 2.354 7.35 9.187 12.7 17.282 12.85 -6.332 4.962-14.308 7.919-22.977 7.919 -1.493 0-2.966-0.088-4.414-0.258 8.188 5.25 17.913 8.312 28.361 8.312 34.032 0 52.64-28.192 52.64-52.639 0-0.804-0.018-1.603-0.054-2.395C89.681 28.615 92.817 25.355 95.297 21.646z"/> </symbol></svg>